<svg xmlns="http://www.w3.org/2000/svg" viewBox="0 0 300 300">
  <rect width="300" height="300" fill="#ffffff" stroke="#4A2C1D" stroke-width="4" stroke-dasharray="10,8"/>
  <g fill="#4A2C1D">
    <rect x="30" y="30" width="60" height="60"/>
    <rect x="45" y="45" width="30" height="30" fill="#fff"/>
    <rect x="210" y="30" width="60" height="60"/>
    <rect x="225" y="45" width="30" height="30" fill="#fff"/>
    <rect x="30" y="210" width="60" height="60"/>
    <rect x="45" y="225" width="30" height="30" fill="#fff"/>
    <rect x="130" y="130" width="18" height="18"/>
    <rect x="160" y="130" width="18" height="18"/>
    <rect x="130" y="160" width="18" height="18"/>
    <rect x="160" y="160" width="18" height="18"/>
    <rect x="190" y="190" width="18" height="18"/>
    <rect x="220" y="220" width="18" height="18"/>
    <rect x="130" y="220" width="18" height="18"/>
    <rect x="220" y="130" width="18" height="18"/>
  </g>
  <text x="50%" y="292" text-anchor="middle" font-family="Poppins, sans-serif" font-size="16" fill="#4A2C1D">Contoh QRIS</text>
</svg>